PathFileType	4	(X/Y/Z)	/Users/itak/Documents/Research/Walk-IL/dataset/trc/00360_00011.trc
DataRate	CameraRate	NumFrames	NumMarkers	Units	OrigDataRate	OrigDataStartFrame	OrigNumFrames
100.000000	100.000000	4	56	mm	100.000000	153	409
Frame#	Time	RPSI			LPSI			L3			STRN			T10			C7			CLAV			RBAK			LBAK			LSHO			LUPA			LAEL			LAOL			LWTS			LWPS			LFRA			LIFD			LHPS			LHTS			RSHO			RUPA			RAEL			RAOL			RWTS			RWPS			RFRA			RIFD			RHTS			RHPS			RBHD			LFHD			RFHD			LBHD			LHIP			RHIP			RASI			LASI			LKNE			LTHI			LANK			LTIP			LTOE			LMT1			LMT5			LHEE			RKNE			RTHI			RTIP			RTOE			RMT1			RMT5			RANK			RHEE			*53			*54			*55			
		X1	Y1	Z1	X2	Y2	Z2	X3	Y3	Z3	X4	Y4	Z4	X5	Y5	Z5	X6	Y6	Z6	X7	Y7	Z7	X8	Y8	Z8	X9	Y9	Z9	X10	Y10	Z10	X11	Y11	Z11	X12	Y12	Z12	X13	Y13	Z13	X14	Y14	Z14	X15	Y15	Z15	X16	Y16	Z16	X17	Y17	Z17	X18	Y18	Z18	X19	Y19	Z19	X20	Y20	Z20	X21	Y21	Z21	X22	Y22	Z22	X23	Y23	Z23	X24	Y24	Z24	X25	Y25	Z25	X26	Y26	Z26	X27	Y27	Z27	X28	Y28	Z28	X29	Y29	Z29	X30	Y30	Z30	X31	Y31	Z31	X32	Y32	Z32	X33	Y33	Z33	X34	Y34	Z34	X35	Y35	Z35	X36	Y36	Z36	X37	Y37	Z37	X38	Y38	Z38	X39	Y39	Z39	X40	Y40	Z40	X41	Y41	Z41	X42	Y42	Z42	X43	Y43	Z43	X44	Y44	Z44	X45	Y45	Z45	X46	Y46	Z46	X47	Y47	Z47	X48	Y48	Z48	X49	Y49	Z49	X50	Y50	Z50	X51	Y51	Z51	X52	Y52	Z52	X53	Y53	Z53	X54	Y54	Z54	X55	Y55	Z55	X56	Y56	Z56	

154	1.53	372.2102966308594	953.583740234375	224.2526550292969	248.4426727294922	956.466552734375	185.3652954101562	310.2499084472656	1015.09912109375	205.9235687255859	365.7515563964844	1212.826049804688	-9.724512100219727	294.1458740234375	1134.634399414062	214.8253936767578	283.5034484863281	1384.318481445312	180.5685119628906	341.5122680664062	1335.88671875	33.96524810791016	336.4317016601562	1245.853759765625	241.8538818359375	184.1359710693359	1343.368774414062	158.7757415771484	158.1920776367188	1361.638549804688	60.27898025512695	97.78206634521484	1238.589111328125	40.91516494750977	108.9425811767578	1042.143432617188	-18.24018287658691	131.1247863769531	1015.470825195312	60.72089004516602	221.652099609375	833.7215576171875	-131.0664978027344	155.590576171875	811.6825561523438	-126.5507736206055	120.9595336914062	943.7229614257812	-55.8505744934082	243.7097625732422	681.22412109375	-178.5957183837891	168.5746002197266	744.5281372070312	-139.1029357910156	222.2586212158203	763.4671630859375	-167.3570098876953	455.0178527832031	1379.195190429688	180.6482696533203	509.7992553710938	1318.336791992188	214.025634765625	559.942626953125	1058.334594726562	249.103515625	468.908447265625	1042.337036132812	230.3871612548828	611.5875854492188	833.3245239257812	138.9701690673828	645.8757934570312	822.4203491210938	206.9767150878906	588.3778686523438	992.5753173828125	238.957763671875	638.5153198242188	660.4850463867188	139.3937377929688	645.0957641601562	733.1978149414062	127.8313598632812	658.3858642578125	738.1658325195312	195.0249633789062	383.8095092773438	1599.341918945312	146.1234588623047	298.4277648925781	1596.82421875	-44.25268936157227	395.4034423828125	1600.302490234375	-16.44077301025391	239.9703674316406	1591.447387695312	132.9062805175781	173.7899169921875	904.2036743164062	68.61517333984375	500.7002563476562	908.0006103515625	173.9131469726562	486.4995422363281	941.0652465820312	66.48149871826172	267.3339538574219	935.4775390625	-25.92367172241211	288.6146850585938	448.6856079101562	4.85834789276123	247.5375518798828	585.979736328125	2.464004516601562	335.5970153808594	44.60396575927734	136.6392974853516	304.8799743652344	227.4541473388672	60.28253555297852	433.4666442871094	39.16848754882812	-53.94472503662109	460.7908325195312	25.70967674255371	22.44615364074707	347.8146667480469	39.18959808349609	12.14979934692383	395.2908325195312	43.97978210449219	183.3179473876953	581.363037109375	486.5440368652344	6.593620777130127	561.9373168945312	728.25732421875	58.41843414306641	561.7950439453125	377.9139709472656	57.39710235595703	507.457763671875	47.03149032592773	155.8279571533203	447.3689880371094	77.52048492431641	173.1735229492188	528.6531372070312	105.8087158203125	254.0048065185547	480.0303039550781	185.2760314941406	295.5325622558594	420.3574829101562	218.9600372314453	300.1499938964844	nan	nan	nan	nan	nan	nan	nan	nan	nan	
155	1.54	379.1071166992188	954.209716796875	216.8543548583984	254.4768371582031	956.794677734375	180.6804809570312	315.9666137695312	1015.840087890625	199.5353240966797	367.8445129394531	1213.2958984375	-17.40843200683594	299.1929016113281	1135.32373046875	208.4235534667969	288.0921936035156	1384.972412109375	173.9457550048828	344.4064025878906	1336.401611328125	26.61979103088379	341.5037841796875	1246.56689453125	234.8195343017578	188.3171691894531	1343.9755859375	153.1097564697266	161.4772338867188	1362.57861328125	55.0232048034668	100.9912338256836	1239.73486328125	34.6344108581543	113.0263595581055	1044.837646484375	-29.55728340148926	135.0486755371094	1016.147644042969	48.73574447631836	228.6257934570312	841.1326904296875	-148.0010375976562	162.7411651611328	818.1912841796875	-144.6911926269531	126.11279296875	947.5623168945312	-70.08283996582031	252.7081146240234	690.630615234375	-200.5887908935547	176.5362854003906	751.6531372070312	-159.4473724365234	230.1413116455078	772.2167358398438	-186.7156066894531	459.5787048339844	1379.603271484375	171.992431640625	514.388427734375	1318.854614257812	205.2029113769531	562.06103515625	1058.742431640625	242.5483245849609	470.721435546875	1043.58642578125	224.5583648681641	610.6018676757812	831.4346313476562	135.5917358398438	645.0855102539062	821.1907348632812	203.6239166259766	589.7290649414062	992.6065063476562	233.0743255615234	634.7455444335938	658.0260620117188	139.0668792724609	642.2808837890625	730.293212890625	126.1798629760742	656.2072143554688	736.4357299804688	193.1404876708984	387.8281555175781	1599.716186523438	138.6953735351562	301.3298645019531	1597.448974609375	-51.16371536254883	398.4760437011719	1600.7548828125	-23.93837547302246	243.9617767333984	1592.06640625	126.359748840332	177.1170654296875	904.2127685546875	65.91291046142578	506.41015625	909.1754150390625	163.2714233398438	489.7332153320312	942.7935180664062	55.67337036132812	268.1314697265625	935.6876220703125	-31.28596878051758	289.6164855957031	448.5057373046875	3.536976099014282	249.3912658691406	586.00927734375	1.050021290779114	335.7236022949219	44.7811393737793	136.6015625	305.5534362792969	227.6648101806641	59.955322265625	433.5075988769531	39.10188293457031	-53.97913360595703	460.862548828125	25.77408599853516	22.40453910827637	347.86181640625	39.22568130493164	12.15372562408447	395.4007873535156	44.15882110595703	183.2985687255859	584.9850463867188	490.0389099121094	-11.49865245819092	565.9714965820312	731.1069946289062	44.62774276733398	568.061279296875	379.2801208496094	36.39812088012695	523.9813232421875	46.4520378112793	121.2615051269531	463.1355895996094	73.81358337402344	141.3883819580078	545.2778930664062	100.9405059814453	221.8783264160156	494.9072265625	176.4161987304688	268.5381774902344	434.2805480957031	207.9912414550781	276.0379638671875	nan	nan	nan	nan	nan	nan	nan	nan	nan	
156	1.55	386.0087280273438	954.7328491210938	209.3797760009766	260.5686340332031	957.044921875	175.9761962890625	321.6799011230469	1016.488464355469	193.2175903320312	369.8263854980469	1213.558349609375	-25.07180786132812	304.2694396972656	1135.888793945312	202.016845703125	292.6756286621094	1385.48779296875	167.2895050048828	347.2331237792969	1336.740966796875	19.23650360107422	346.5679321289062	1247.134033203125	227.7148895263672	192.4911193847656	1344.43798828125	147.4415130615234	164.7275390625	1363.35791015625	49.77812576293945	104.1413421630859	1240.732055664062	28.48725318908691	116.9827194213867	1047.462036132812	-40.58603286743164	139.02783203125	1016.820617675781	36.94310760498047	235.2581939697266	848.6029663085938	-164.5776214599609	169.6040344238281	824.7759399414062	-162.3328399658203	131.0906524658203	951.4131469726562	-83.94894409179688	261.3753967285156	700.2350463867188	-221.9939117431641	184.2375030517578	758.9077758789062	-179.1992492675781	237.657470703125	781.0604248046875	-205.5760345458984	464.1182556152344	1379.84033203125	163.2549133300781	518.9419555664062	1319.186889648438	196.3088531494141	564.177001953125	1059.013916015625	235.97021484375	472.5616760253906	1044.664428710938	218.6652374267578	609.6911010742188	829.572998046875	132.17041015625	644.379150390625	819.965087890625	200.2218017578125	591.1076049804688	992.5310668945312	227.17333984375	631.2249145507812	655.7278442382812	138.5920715332031	639.679931640625	727.5724487304688	124.3959350585938	654.1898193359375	734.79248046875	191.1549530029297	391.7974548339844	1599.925415039062	131.2888336181641	304.1711120605469	1597.983520507812	-58.04143142700195	401.4856872558594	1601.122924804688	-31.40801620483398	247.9220123291016	1592.510620117188	119.848503112793	180.6701812744141	904.1456909179688	63.18724060058594	511.9893188476562	910.1006469726562	152.7242889404297	492.9682006835938	944.3148803710938	44.97365188598633	269.0599975585938	935.7394409179688	-36.53985595703125	290.7657165527344	448.2931213378906	2.098917245864868	251.4478454589844	585.9633178710938	-0.3874444961547852	335.87890625	44.98820877075195	136.5522613525391	306.3351745605469	227.8564300537109	59.54800033569336	433.5718994140625	39.02102661132812	-54.03091430664062	460.9520874023438	25.8424015045166	22.37468719482422	347.9428405761719	39.27209091186523	12.1594181060791	395.534423828125	44.33551025390625	183.2684173583984	588.10498046875	493.2087097167969	-28.94612503051758	569.7252807617188	733.6808471679688	31.0874080657959	573.8329467773438	380.317138671875	15.69001388549805	539.3271484375	45.8803825378418	86.19129180908203	477.9701843261719	70.09588623046875	108.9757614135742	561.1011962890625	95.81707000732422	189.0309295654297	509.39697265625	167.0870361328125	240.715087890625	447.9969787597656	196.4757232666016	251.0850524902344	nan	nan	nan	nan	nan	nan	nan	nan	nan	
157	1.56	392.89208984375	955.1624145507812	201.8361053466797	266.7030334472656	957.232666015625	171.2172698974609	327.3877868652344	1017.055908203125	186.9735412597656	371.7195129394531	1213.621459960938	-32.70873641967773	309.3677978515625	1136.333984375	195.5948944091797	297.245849609375	1385.862548828125	160.5909118652344	350.000732421875	1336.907470703125	11.82039451599121	351.6189270019531	1247.556518554688	220.5271301269531	196.6602935791016	1344.758422851562	141.7606353759766	167.9522552490234	1363.97021484375	44.52710723876953	107.2513885498047	1241.5693359375	22.45046997070312	120.8311157226562	1049.987915039062	-51.32991409301758	143.0510711669922	1017.472900390625	25.37015342712402	241.55615234375	856.083740234375	-180.7640686035156	176.1831359863281	831.3847045898438	-179.4554138183594	135.9009094238281	955.2396240234375	-97.43887329101562	269.6994323730469	709.9732055664062	-242.7870941162109	191.6813812255859	766.2319946289062	-198.3380584716797	244.8125305175781	789.9363403320312	-223.9068298339844	468.6318969726562	1379.916625976562	154.4463348388672	523.4585571289062	1319.34326171875	187.3535003662109	566.296142578125	1059.154663085938	229.3418579101562	474.437744140625	1045.57763671875	212.6728820800781	608.8615112304688	827.7242431640625	128.6913146972656	643.7557983398438	818.740966796875	196.756103515625	592.5155639648438	992.3525390625	221.2291259765625	627.9915771484375	653.576904296875	137.9505310058594	637.3496704101562	725.059814453125	122.4365081787109	652.34814453125	733.2330932617188	189.0546417236328	395.7237548828125	1599.969848632812	123.8929977416992	306.9596862792969	1598.423828125	-64.89609527587891	404.4392700195312	1601.4052734375	-38.85774230957031	251.8527069091797	1592.777587890625	113.3596572875977	184.4221496582031	904.0193481445312	60.40578842163086	517.424072265625	910.7747802734375	142.2858734130859	496.1573486328125	945.572021484375	34.43938446044922	270.1292419433594	935.6424560546875	-41.70328521728516	292.0529479980469	448.0403137207031	0.4957602918148041	253.6863555908203	585.8411865234375	-1.908623576164246	336.0710144042969	45.21814727783203	136.4952239990234	307.2223815917969	228.0206146240234	59.03129577636719	433.6575622558594	38.92610168457031	-54.09990692138672	461.0528564453125	25.9069766998291	22.36379051208496	348.0547485351562	39.32814025878906	12.16393280029297	395.6932373046875	44.50975036621094	183.2252197265625	590.7628173828125	495.9863891601562	-45.69614791870117	573.2139282226562	735.9627075195312	17.81504058837891	579.1281127929688	381.0165710449219	-4.692532539367676	553.4139404296875	45.38296127319336	50.671875	491.7807006835938	66.45352935791016	75.97948455810547	576.0267333984375	90.49015045166016	155.4894256591797	523.4253540039062	157.3831176757812	212.0533142089844	461.4426879882812	184.5270538330078	225.2663726806641	nan	nan	nan	nan	nan	nan	nan	nan	nan	
